<svg width="357" height="118" viewBox="0 0 357 118" fill="none" xmlns="http://www.w3.org/2000/svg">
<g clip-path="url(#clip0_200_2149)">
<path fill-rule="evenodd" clip-rule="evenodd" d="M116.563 5.78503C117.138 7.81753 124.201 33.8948 111.741 47.5153C98.8317 61.6266 91.1516 54.8248 90.1566 46.2816C90.1532 46.2454 90.1386 46.2112 90.1147 46.1839C90.0908 46.1565 90.059 46.1374 90.0238 46.1293C88.4037 45.7306 70.9006 41.1156 73.1971 28.1714C75.6054 14.6015 100.167 7.4897 100.167 7.4897C100.167 7.4897 105.332 5.40563 116.396 5.65776C116.434 5.65735 116.471 5.66964 116.501 5.69269C116.531 5.71574 116.553 5.74823 116.563 5.78503Z" fill="#669933"/>
<path fill-rule="evenodd" clip-rule="evenodd" d="M114.491 8.57788C113.106 13.5772 108.618 26.4297 96.5675 39.4712C96.5438 39.4966 96.5281 39.5285 96.5225 39.5628C96.5169 39.5972 96.5215 39.6324 96.5359 39.6641C96.5504 39.6964 96.5742 39.7235 96.6042 39.7422C96.6342 39.7608 96.669 39.77 96.7043 39.7687C99.0334 39.6834 101.958 39.9813 104.761 41.7453C104.797 41.7676 104.824 41.802 104.837 41.8424C104.85 41.8829 104.848 41.9265 104.831 41.9656C104.815 42.0047 104.785 42.0367 104.748 42.0557C104.71 42.0747 104.667 42.0795 104.626 42.0692C102.711 41.6045 98.4414 41.0371 93.4286 43.4364C93.3996 43.4503 93.3748 43.4716 93.3567 43.4982C91.3845 46.4572 88.7594 50.1462 86.2782 54.0116C86.2614 54.0378 86.2382 54.059 86.2107 54.0733C86.1832 54.0876 86.1525 54.0944 86.1215 54.0931C86.0906 54.0917 86.0606 54.0822 86.0345 54.0656C86.0083 54.0489 85.987 54.0256 85.9726 53.9981L82.8615 48.0997C82.8615 48.0997 84.0196 47.3766 85.9827 45.7433C86.0077 45.7221 86.0264 45.6945 86.0368 45.6634C86.0473 45.6324 86.049 45.599 86.0418 45.567C86.0346 45.535 86.0188 45.5056 85.9961 45.482C85.9734 45.4584 85.9447 45.4416 85.9131 45.4333C77.4861 43.1858 69.4621 38.118 72.5012 27.2864C77.3772 9.91039 102.734 1.90333 119.131 3.82845e-05C119.172 -0.00505454 119.212 0.00403153 119.247 0.0257466C119.281 0.0474618 119.307 0.0804607 119.319 0.119115C124.726 16.0464 126.314 41.3876 114.704 52.3069C100.668 65.5114 89.998 52.2756 94.0576 45.3826C94.0771 45.3495 94.1067 45.3237 94.1421 45.3089C94.1775 45.2941 94.2166 45.2912 94.2538 45.3007C94.2909 45.3101 94.324 45.3314 94.3481 45.3613C94.3722 45.3911 94.3861 45.4281 94.3876 45.4665C94.7316 54.3606 101.724 59.6998 112.646 49.0273C123.069 38.8426 124.447 11.348 117.559 3.20257C117.54 3.17979 117.516 3.16222 117.489 3.15158C117.461 3.14093 117.432 3.13757 117.403 3.14183C102.936 4.83156 81.0836 14.5293 76.5703 28.6059C73.8838 36.9798 82.0469 44.189 88.6083 42.8912C88.6441 42.8843 88.6813 42.8888 88.7145 42.9041C88.7477 42.9193 88.7755 42.9446 88.7938 42.9763C88.8122 43.008 88.8203 43.0447 88.8171 43.0813C88.8138 43.1178 88.7994 43.1525 88.7757 43.1805C88.6797 43.2904 88.5752 43.4152 88.4643 43.5478C90.7143 41.4526 93.5083 38.5649 96.5896 34.7468C96.5896 34.7468 96.5925 34.7439 96.5934 34.7424C99.1936 31.7346 99.0473 24.4257 97.0497 19.2731C97.0343 19.2332 97.0338 19.1892 97.048 19.1489C97.0623 19.1087 97.0905 19.0749 97.1274 19.0538C97.1644 19.0327 97.2076 19.0256 97.2494 19.0338C97.2911 19.042 97.3285 19.065 97.3548 19.0986C98.7043 20.8432 101.259 24.8904 100.214 29.4544C100.204 29.4944 100.209 29.5364 100.227 29.5732C100.245 29.6101 100.276 29.6395 100.313 29.6564C100.35 29.674 100.391 29.6782 100.431 29.6681C100.47 29.6581 100.505 29.6345 100.529 29.6014C104.943 23.6452 110.521 16.6221 114.156 8.45881C114.175 8.41841 114.208 8.38646 114.248 8.36925C114.289 8.35203 114.335 8.35079 114.377 8.36578C114.419 8.38076 114.453 8.41088 114.474 8.45021C114.495 8.48955 114.5 8.53526 114.489 8.57837L114.491 8.57788Z" fill="#53381D"/>
<path fill-rule="evenodd" clip-rule="evenodd" d="M25.7426 10.1298C29.0389 10.0878 71.9069 12.1719 83.6302 37.3375C95.8797 63.6332 83.8701 70.461 71.03 67.6962C70.9939 67.6879 70.9562 67.6909 70.9219 67.7048C70.8876 67.7186 70.8583 67.7427 70.8381 67.7738C69.7016 69.5378 54.1966 92.9163 36.5011 83.2417C18.1167 73.1887 20.0942 34.4855 20.0942 34.4855C20.0942 34.4855 19.6581 26.0402 25.5632 10.2464C25.5774 10.2107 25.6022 10.1803 25.6344 10.1594C25.6665 10.1385 25.7043 10.1281 25.7426 10.1298Z" fill="#669933"/>
<path fill-rule="evenodd" clip-rule="evenodd" d="M28.4371 13.1434C33.7784 17.2233 50.1244 31.1948 61.769 57.1583C61.7827 57.191 61.8062 57.2187 61.8361 57.2375C61.8661 57.2564 61.9012 57.2654 61.9364 57.2634C61.9716 57.2626 62.0058 57.2511 62.0344 57.2305C62.063 57.2098 62.0847 57.181 62.0967 57.1477C63.3723 53.6766 65.6054 49.4882 70.0747 46.5142C70.1097 46.4905 70.152 46.4803 70.1939 46.4853C70.2358 46.4904 70.2745 46.5104 70.303 46.5417C70.3316 46.5729 70.3482 46.6132 70.3501 46.6555C70.3519 46.6979 70.3388 46.7395 70.3131 46.7731C68.6695 48.8683 64.9041 54.6996 65.3368 63.6863C65.3378 63.7187 65.348 63.7501 65.3661 63.7769C68.3342 68.2946 71.9427 74.1809 75.8852 79.9535C75.903 79.9788 75.9137 80.0084 75.9163 80.0393C75.9188 80.0701 75.913 80.1011 75.8996 80.129C75.8871 80.1575 75.8671 80.1821 75.8417 80.2C75.8164 80.2179 75.7866 80.2285 75.7557 80.2307L65.6232 81.151C65.6232 81.151 65.2903 79.0496 64.1312 75.2459C64.1215 75.2147 64.1035 75.1868 64.0791 75.1651C64.0547 75.1435 64.0249 75.1289 63.9929 75.1231C63.9609 75.1172 63.9279 75.1203 63.8975 75.1319C63.8671 75.1435 63.8404 75.1633 63.8204 75.189C55.7882 85.7198 44.0471 94.0971 30.7719 83.481C9.54943 66.5114 13.2914 26.3406 20.2398 2.32476C20.251 2.28583 20.2751 2.2519 20.308 2.22858C20.341 2.20526 20.3809 2.19395 20.4212 2.19653C45.6231 3.90988 81.6785 16.4843 90.0235 39.0977C100.194 66.6521 75.1455 73.7307 68.2138 63.6622C68.1923 63.6309 68.1813 63.5935 68.1826 63.5555C68.1838 63.5175 68.1971 63.4809 68.2205 63.451C68.2436 63.4204 68.2762 63.3982 68.3131 63.388C68.3501 63.3778 68.3894 63.3801 68.4249 63.3946C81.0419 68.3076 92.7431 61.7121 84.2839 40.0614C76.2628 19.5272 38.95 1.54281 23.6858 6.46834C23.658 6.47741 23.6328 6.49318 23.6125 6.51428C23.5922 6.53537 23.5773 6.56114 23.5692 6.58934C17.4531 27.7869 18.1103 64.0291 34.973 78.5612C45.0829 87.2755 59.9945 79.8735 61.8175 69.8103C61.8235 69.7726 61.8415 69.7379 61.8688 69.7113C61.896 69.6847 61.931 69.6676 61.9686 69.6625C62.0063 69.6574 62.0446 69.6646 62.0778 69.6831C62.1111 69.7015 62.1375 69.7303 62.1533 69.765C62.2727 70.0176 62.4263 70.3242 62.5961 70.6569C61.0096 66.2891 58.6445 60.6998 55.1568 54.165C55.1568 54.165 55.1568 54.1616 55.1568 54.1597C52.4468 48.6364 41.8001 44.5073 33.4028 44.4851C33.3601 44.4854 33.3188 44.47 33.2867 44.4417C33.2546 44.4135 33.2339 44.3743 33.2286 44.3318C33.2225 44.2897 33.2316 44.2467 33.2543 44.2108C33.277 44.1749 33.3118 44.1483 33.3524 44.1361C36.2356 43.2683 44.1541 41.5429 50.3029 46.2761C50.3355 46.3013 50.3758 46.3144 50.4169 46.313C50.458 46.3116 50.4974 46.2959 50.5282 46.2685C50.5591 46.2411 50.5794 46.2038 50.5859 46.1629C50.5923 46.1221 50.5843 46.0802 50.5634 46.0447C44.6742 36.0485 37.9464 23.5474 28.2077 13.4071C28.1776 13.3744 28.1607 13.3317 28.1603 13.2872C28.1599 13.2426 28.176 13.1996 28.2055 13.1664C28.235 13.1332 28.2758 13.1122 28.3199 13.1076C28.3639 13.103 28.4081 13.1151 28.4438 13.1414L28.4371 13.1434Z" fill="#53381D"/>
<path fill-rule="evenodd" clip-rule="evenodd" d="M124.173 50.8264C124.173 50.8264 141.348 67.9074 132.657 78.4358C126.922 84.6548 117.646 80.1424 117.646 80.1424C117.646 80.1424 110.861 99.2881 80.282 97.9286C79.8502 90.6327 77.7763 82.1455 72.375 73.3782C74.671 66.5286 79.2189 58.4083 87.5998 49.2799C87.5998 49.2799 85.3585 47.1148 89.9798 41.3905C94.6011 35.6661 113.134 35.616 124.173 50.8264Z" fill="#BA7852"/>
<path fill-rule="evenodd" clip-rule="evenodd" d="M124.479 83.4942C126.973 84.1937 132.591 85.1213 135.848 80.594C140.124 74.6498 136.027 63.4276 136.027 63.4276C136.027 63.4276 131.728 50.3239 111.144 40.3123C111.141 40.3111 111.138 40.3102 111.135 40.3094C110.861 40.1947 97.9565 34.8661 89.1218 43.1056C89.0908 43.1351 89.0503 43.1523 89.0076 43.1541C88.965 43.1559 88.9232 43.1421 88.8899 43.1153C88.8566 43.0885 88.8341 43.0504 88.8265 43.0082C88.819 42.966 88.8269 42.9225 88.8488 42.8857C90.5672 39.9652 96.8368 32.0218 112.516 36.1085C112.516 36.1085 120.993 38.2085 130.462 47.6816C130.486 47.707 130.517 47.7243 130.552 47.7313C130.586 47.7382 130.622 47.7345 130.654 47.7206C132.401 47.0254 135.01 45.3584 137.837 41.37C137.843 41.3638 137.847 41.3575 137.851 41.3522C138.006 41.1849 140.396 38.6621 141.021 42.1718C141.023 42.1885 141.028 42.2048 141.036 42.22C141.175 42.5058 142.565 45.652 138.029 48.3734C136.067 49.5516 134.465 50.0607 133.26 50.2535C133.229 50.2585 133.199 50.2719 133.175 50.2923C133.15 50.3127 133.132 50.3393 133.121 50.3694C133.11 50.3995 133.108 50.4319 133.114 50.4633C133.12 50.4946 133.134 50.5238 133.156 50.5476C134.785 52.3906 136.319 54.3162 137.753 56.3168C137.753 56.3168 146.597 68.1729 139.347 82.7176C139.344 82.7229 139.341 82.7272 139.339 82.7315C139.177 82.9953 134.576 90.2493 124.339 83.8206C124.302 83.7979 124.274 83.7626 124.261 83.721C124.249 83.6795 124.251 83.6347 124.269 83.595C124.286 83.5553 124.318 83.5234 124.357 83.5053C124.397 83.4872 124.441 83.4841 124.483 83.4966L124.479 83.4942Z" fill="#53381D"/>
<path fill-rule="evenodd" clip-rule="evenodd" d="M74.2044 75.9404C76.3766 69.3941 80.2106 62.2331 86.7441 55.1623C86.7664 55.1379 86.7949 55.1202 86.8265 55.1112C86.8582 55.1022 86.8917 55.1022 86.9233 55.1112C86.9549 55.1202 86.9835 55.1378 87.0057 55.1622C87.028 55.1865 87.043 55.2166 87.0493 55.2491C87.5496 57.9006 91.6748 74.768 115.925 77.6807C115.968 77.6862 116.011 77.6758 116.047 77.6514C116.083 77.627 116.108 77.5903 116.119 77.5483C116.13 77.5062 116.125 77.4616 116.106 77.4229C116.086 77.3842 116.053 77.354 116.013 77.338C110.873 75.3036 92.6837 66.7754 90.6012 47.3235C90.6012 47.3186 90.6012 47.3143 90.6012 47.3085C90.5772 47.1808 90.1997 45.4052 88.6712 46.772C87.6916 47.6474 77.1024 56.6717 71.2482 71.4671C71.237 71.4939 71.2327 71.5231 71.2358 71.5521C71.239 71.581 71.2493 71.6086 71.266 71.6324C72.2296 73.0864 73.1021 74.5316 73.8834 75.9679C73.8997 75.9984 73.9246 76.0234 73.9549 76.0399C73.9852 76.0563 74.0196 76.0635 74.0539 76.0604C74.0883 76.0574 74.1209 76.0443 74.1479 76.0228C74.1749 76.0013 74.195 75.9723 74.2058 75.9394L74.2044 75.9404Z" fill="#53381D"/>
<path fill-rule="evenodd" clip-rule="evenodd" d="M127.651 85.2071C123.132 89.9581 102.417 104.58 80.493 103.058C80.4474 103.057 80.4035 103.074 80.3707 103.106C80.3379 103.138 80.3189 103.181 80.3179 103.227C80.2594 104.538 80.1529 105.793 80.0137 106.988C80.0106 107.011 80.0123 107.035 80.0189 107.058C80.0256 107.081 80.0369 107.102 80.0521 107.12C80.0659 107.14 80.0841 107.156 80.1053 107.167C80.1265 107.178 80.15 107.184 80.174 107.185C92.0306 106.985 112.44 102.385 127.885 85.4703C127.915 85.4376 127.932 85.3945 127.932 85.3498C127.932 85.3051 127.915 85.262 127.885 85.2293C127.827 85.1637 127.714 85.142 127.651 85.2071Z" fill="#53381D"/>
<path fill-rule="evenodd" clip-rule="evenodd" d="M116.93 85.4746C115.168 85.571 108.918 85.6587 104.078 82.5251C104.043 82.5018 104 82.4922 103.958 82.498C103.916 82.5039 103.877 82.5248 103.849 82.557C103.821 82.5892 103.806 82.6302 103.805 82.6729C103.805 82.7155 103.819 82.7569 103.846 82.7898C105.146 84.3484 107.91 87.2771 110.685 87.7597C110.717 87.765 110.747 87.7791 110.772 87.8004C110.797 87.8217 110.815 87.8495 110.825 87.8806C110.835 87.9117 110.836 87.945 110.828 87.9767C110.821 88.0085 110.804 88.0375 110.781 88.0605C109.695 89.1491 104.838 93.4088 94.1158 94.9018C94.0714 94.9077 94.031 94.9303 94.0026 94.965C93.9742 94.9998 93.9599 95.044 93.9628 95.0889C93.9649 95.1333 93.9838 95.1751 94.0155 95.2061C94.0472 95.2371 94.0893 95.2548 94.1335 95.2557C98.0554 95.3815 107.858 94.669 117.065 85.7797C117.091 85.7546 117.109 85.722 117.116 85.6864C117.123 85.6508 117.119 85.6138 117.104 85.5805C117.09 85.5472 117.066 85.5192 117.035 85.5003C117.004 85.4813 116.968 85.4724 116.932 85.4746H116.93Z" fill="#53381D"/>
<path fill-rule="evenodd" clip-rule="evenodd" d="M96.4273 44.9573C93.7408 45.3285 95.1171 50.4502 97.7677 50.5688C100.418 50.6874 97.6746 46.3423 96.4273 44.9573Z" fill="#53381D"/>
<path fill-rule="evenodd" clip-rule="evenodd" d="M17.6537 57.1413C17.3021 56.6684 -2.24854 78.5461 9.06263 92.1961C15.4047 98.8282 25.5962 92.0389 25.5962 92.0389C25.5962 92.0389 34.3005 117.424 74.6903 106.085C74.6903 106.085 88.0888 81.5944 58.541 50.5342C58.541 50.5342 60.9977 47.6026 55.8861 41.4034C50.7746 35.2042 30.5773 38.0799 17.6537 57.1413Z" fill="#BA7852"/>
<path fill-rule="evenodd" clip-rule="evenodd" d="M19.9969 97.2002C17.0585 98.8432 10.4573 101.727 6.95528 96.9061C2.36182 90.5849 8.09992 75.1484 8.09992 75.1484C8.09992 75.1484 12.2491 59.3064 34.2047 44.6899C34.2072 44.6887 34.2096 44.6873 34.2119 44.6855C34.4791 44.5284 48.3861 36.3738 57.8719 44.9189C57.9035 44.9473 57.9442 44.9635 57.9866 44.9647C58.029 44.9658 58.0705 44.9518 58.1036 44.9251C58.1358 44.8986 58.1577 44.8615 58.1654 44.8203C58.1731 44.7791 58.1662 44.7365 58.1458 44.7C56.4639 41.7048 49.8037 32.8329 32.7199 39.9823C32.7199 39.9823 23.6644 43.6462 13.5785 56.06C13.5566 56.0874 13.527 56.1077 13.4936 56.1181C13.4602 56.1286 13.4245 56.1289 13.3909 56.1188C11.5199 55.5567 8.72598 53.9851 5.6859 49.735C5.6813 49.7279 5.67582 49.7214 5.66959 49.7157C5.49976 49.5383 2.9351 46.9417 2.28602 51.1325C2.28314 51.1471 2.2793 51.1614 2.27451 51.1755C2.14546 51.4811 0.618947 55.3851 5.51032 57.9295C7.61779 59.0253 9.3338 59.3912 10.6238 59.4419C10.6559 59.4431 10.6871 59.453 10.714 59.4708C10.7409 59.4885 10.7625 59.5132 10.7764 59.5423C10.7904 59.5715 10.7961 59.6039 10.793 59.636C10.79 59.6682 10.7782 59.6989 10.7591 59.7249C9.13039 61.9574 7.48155 64.4243 5.84085 67.1515C5.83989 67.1541 5.83842 67.1566 5.83654 67.1587C5.67103 67.4099 -4.91479 83.5662 2.83628 99.373C2.83664 99.3752 2.83765 99.3772 2.83916 99.3788C2.90536 99.5292 7.30068 109.147 20.2055 97.4914C20.2379 97.4619 20.2585 97.4216 20.2633 97.378C20.2682 97.3344 20.257 97.2906 20.2319 97.2547C20.207 97.2172 20.1688 97.1907 20.1251 97.1806C20.0814 97.1705 20.0356 97.1775 19.9969 97.2002Z" fill="#53381D"/>
<path fill-rule="evenodd" clip-rule="evenodd" d="M17.4618 99.6C17.7713 100.122 17.9368 100.44 19.3098 101.584C24.8224 105.854 45.8587 117.934 72.9551 112.576C74.4044 112.291 75.4723 111.192 75.7419 109.732C77.1105 102.295 79.5457 78.5576 60.3256 58.519C60.3025 58.4953 60.2734 58.4785 60.2414 58.4705C60.2093 58.4624 60.1757 58.4635 60.1443 58.4735C60.1128 58.4834 60.0847 58.502 60.0631 58.5271C60.0415 58.5521 60.0273 58.5827 60.0219 58.6155C59.5422 61.5673 55.3129 82.1218 29.1194 88.994C29.0778 89.0045 29.0339 88.9996 28.9957 88.9802C28.9574 88.9608 28.9275 88.9281 28.9114 88.8882C28.8952 88.8483 28.894 88.8039 28.9079 88.7632C28.9218 88.7225 28.9499 88.6882 28.987 88.6666C34.2314 85.7259 54.0152 73.1592 56.1783 49.9344C56.1775 49.93 56.1775 49.9254 56.1783 49.9209C56.1994 49.7913 56.5894 47.6325 58.2412 49.0165C59.9202 50.4242 87.8441 72.5426 79.6483 112.452C79.4085 113.612 79.1393 114.268 78.0619 114.751C71.1057 117.865 41.782 123.886 19.446 102.857C19.2982 102.719 17.2483 100.189 17.1754 99.8545C17.1562 99.762 17.1121 99.6872 17.1716 99.6173C17.2311 99.5474 17.4139 99.5209 17.4618 99.6Z" fill="#53381D"/>
<path fill-rule="evenodd" clip-rule="evenodd" d="M28.1124 98.2019C29.8528 98.0833 36.7068 97.3438 41.9656 92.8927C41.9982 92.8646 42.0399 92.8496 42.0828 92.8504C42.1257 92.8512 42.1668 92.8678 42.1983 92.897C42.2305 92.926 42.251 92.9658 42.256 93.009C42.2611 93.0521 42.2503 93.0956 42.2257 93.1313C40.8095 95.1937 37.6504 99.3146 34.535 100.073C34.535 100.073 39.5152 105.774 52.9137 105.941C52.9579 105.941 53.0005 105.958 53.0329 105.988C53.0652 106.019 53.085 106.06 53.0883 106.104C53.0927 106.149 53.0803 106.193 53.0537 106.229C53.027 106.265 52.988 106.289 52.9444 106.297C48.9914 107.024 38.1685 107.883 28.0049 98.5163C27.9783 98.4927 27.9593 98.4618 27.9503 98.4274C27.9412 98.393 27.9425 98.3567 27.954 98.323C27.9656 98.2893 27.9867 98.2599 28.0149 98.2383C28.0431 98.2168 28.077 98.2041 28.1124 98.2019Z" fill="#53381D"/>
<path fill-rule="evenodd" clip-rule="evenodd" d="M45.5435 46.0835C49.105 44.777 53.1127 52.7609 50.1302 54.7221C47.1477 56.6832 45.602 48.8357 45.5435 46.0835Z" fill="#53381D"/>
<path fill-rule="evenodd" clip-rule="evenodd" d="M69.2868 87.9912C72.3484 87.6576 73.9603 94.7352 71.2287 95.6974C68.4971 96.6597 68.7998 90.1721 69.2868 87.9912Z" fill="#53381D"/>
<path fill-rule="evenodd" clip-rule="evenodd" d="M116.563 5.78505C117.022 7.40343 121.592 24.2622 117.148 37.9405C117.653 38.1877 118.19 38.4657 118.758 38.7746C123.244 26.3578 122.736 9.31878 117.559 3.19864C117.54 3.17585 117.516 3.15829 117.489 3.14765C117.461 3.13701 117.432 3.13365 117.403 3.13789C113.127 3.63734 108.206 4.8363 103.277 6.64173C105.906 6.09697 110.236 5.51412 116.395 5.65441C116.433 5.65447 116.47 5.66716 116.5 5.69051C116.531 5.71386 116.552 5.74658 116.562 5.78361L116.563 5.78505ZM25.7429 10.1297C28.2154 10.0974 52.9553 11.2626 70.1125 22.4712C55.4427 10.6503 34.2673 3.05497 23.6863 6.46866C23.6585 6.47792 23.6335 6.49382 23.6133 6.51499C23.593 6.53615 23.5782 6.56195 23.5702 6.59015C21.2147 14.752 19.8637 25.1458 20.0556 35.6718C20.0739 34.9072 20.0945 34.4854 20.0945 34.4854C20.0945 34.4854 19.6589 26.0401 25.5635 10.2463C25.5777 10.2108 25.6026 10.1805 25.6346 10.1596C25.6666 10.1387 25.7043 10.1283 25.7424 10.1297H25.7429Z" fill="white"/>
<path fill-rule="evenodd" clip-rule="evenodd" d="M124.173 50.8268C124.173 50.8268 141.348 67.9078 132.657 78.4361C126.922 84.6551 117.646 80.1428 117.646 80.1428C117.646 80.1428 116.815 82.4891 114.421 85.4805C115.538 85.5316 116.421 85.5041 116.93 85.4766C116.966 85.4739 117.002 85.4828 117.033 85.502C117.064 85.5213 117.088 85.5498 117.102 85.5836C117.117 85.6169 117.121 85.6541 117.114 85.6899C117.107 85.7257 117.088 85.7583 117.062 85.7832C112.444 90.2421 107.675 92.6439 103.575 93.9142C98.1968 96.4779 90.9158 98.2761 81.1528 97.9637C81.1556 99.6318 81.0966 101.341 80.9661 103.09C102.373 104.354 122.527 90.3737 127.431 85.4376C126.357 84.9862 125.323 84.4452 124.339 83.8201C124.303 83.7974 124.276 83.7625 124.264 83.7218C124.251 83.681 124.253 83.6371 124.27 83.5979C124.287 83.5581 124.317 83.5258 124.356 83.5071C124.395 83.4884 124.439 83.4845 124.48 83.4962C126.975 84.1962 132.592 85.1237 135.85 80.5959C140.125 74.6522 136.028 63.4301 136.028 63.4301C136.028 63.4301 132.977 54.132 119.712 45.2201C119.648 45.3589 119.582 45.4968 119.514 45.6337C121.244 47.1964 122.806 48.9378 124.173 50.8292V50.8268ZM35.9561 103.939L35.9465 103.934C35.9494 103.936 35.9526 103.938 35.9561 103.939ZM19.3093 101.585C18.0298 100.52 17.7991 100.169 17.5237 99.7045C18.3728 99.0701 19.2661 98.3354 20.203 97.4869C20.2212 97.4714 20.2359 97.4522 20.2461 97.4305C20.2563 97.4088 20.2617 97.3851 20.262 97.3611C20.2639 97.3216 20.2526 97.2826 20.2299 97.2502C20.2102 97.2228 20.1833 97.2014 20.1522 97.1885C20.114 97.1714 20.0708 97.1695 20.0313 97.1832C20.0199 97.1872 20.0088 97.1921 19.9982 97.1977C17.0598 98.8411 10.4596 101.725 6.9566 96.9041C4.77333 93.8997 4.92445 88.8353 5.68291 84.3485C6.03024 87.108 7.0655 89.7797 9.06551 92.1941C15.4076 98.8262 25.5991 92.0364 25.5991 92.0364C25.5991 92.0364 26.5456 94.7964 29.2609 98.0871C28.7725 98.146 28.382 98.1787 28.1129 98.1975C28.0782 98.1998 28.0449 98.2124 28.0173 98.2337C27.9897 98.2549 27.9691 98.284 27.9579 98.3171C27.9507 98.3362 27.9471 98.3565 27.9474 98.3769C27.9473 98.4017 27.9524 98.4262 27.9624 98.4489C27.9724 98.4716 27.9871 98.4919 28.0054 98.5085C30.6516 100.95 33.342 102.698 35.9465 103.933C35.9444 103.932 35.9426 103.93 35.9412 103.928L35.9561 103.938C43.2897 108.527 55.3618 111.511 74.6912 106.085C74.6912 106.085 75.7644 104.123 76.6337 100.606C76.5521 104.564 76.106 107.734 75.7404 109.73C75.4713 111.191 74.4034 112.29 72.9541 112.574C45.8578 117.934 24.8214 105.853 19.3088 101.584L19.3093 101.585Z" fill="white"/>
<path fill-rule="evenodd" clip-rule="evenodd" d="M25.5982 92.0384C25.5982 92.0384 15.4067 98.8286 9.06704 92.196C7.06703 89.7817 6.03176 87.11 5.68444 84.3505C4.92598 88.8373 4.77294 93.9016 6.95813 96.906C10.4602 101.727 17.0613 98.8431 19.9997 97.1996C20.0379 97.1776 20.083 97.1707 20.126 97.1802C20.169 97.1897 20.207 97.2149 20.2326 97.251C20.2581 97.287 20.2694 97.3314 20.2642 97.3753C20.259 97.4193 20.2378 97.4598 20.2046 97.4889C19.2676 98.3354 18.3744 99.0701 17.5252 99.7065C17.8006 100.17 18.0314 100.521 19.3108 101.587C24.8234 105.856 45.8598 117.937 72.9561 112.578C74.4054 112.293 75.4733 111.194 75.7429 109.734C76.1104 107.738 76.5546 104.567 76.6357 100.61C75.7669 104.125 74.6933 106.087 74.6933 106.087C55.3518 111.518 43.2769 108.525 35.9432 103.932C33.3416 102.693 30.6498 100.95 28.0046 98.5104C27.9797 98.4866 27.9622 98.4561 27.9541 98.4225C27.9461 98.3889 27.9479 98.3537 27.9593 98.3211C27.9707 98.2885 27.9912 98.2599 28.0184 98.2388C28.0456 98.2176 28.0783 98.2048 28.1125 98.2019C28.3816 98.1831 28.7721 98.1503 29.2605 98.0915C26.5452 94.8007 25.5987 92.0408 25.5987 92.0408L25.5982 92.0384Z" fill="white"/>
<path fill-rule="evenodd" clip-rule="evenodd" d="M208 17.5384V69.7928H197.335L176.649 39.6423H176.316V69.7928H163.747V17.5384H174.567L195.025 47.6532H195.454V17.5384H208ZM247.32 17.5384H259.866V51.2462C259.866 55.0901 258.948 58.4707 257.113 61.388C255.267 64.3101 252.69 66.5492 249.381 68.1054C246.055 69.6742 242.223 70.4568 237.884 70.4532C234.594 70.4532 231.588 69.9983 228.865 69.0884C226.137 68.1782 223.825 66.8964 221.909 65.2442C220.001 63.5804 218.516 61.5569 217.452 59.1737C216.403 56.7792 215.869 54.133 215.869 51.2467V17.5394H228.438V50.1437C228.438 52.8861 229.308 55.1291 231.048 56.8727C232.799 58.6082 235.079 59.4786 237.887 59.4837C240.674 59.4837 242.951 58.6092 244.702 56.8727C246.453 55.1246 247.327 52.8816 247.323 50.1437V17.5384H247.32ZM266.038 27.7997V17.5374H309.982V27.7997H294.221V69.7899H281.826V27.7997H266.038ZM344.25 33.2131C344.084 31.3214 343.321 29.8597 341.976 28.8184C340.63 27.7771 338.746 27.2612 336.327 27.2612C333.956 27.2612 332.144 27.7163 330.893 28.6144C329.642 29.5126 329.011 30.7101 328.987 32.1819C328.939 33.6668 329.571 34.8517 330.87 35.7494C332.169 36.6355 334.083 37.354 336.613 37.9048L341.08 38.9225C351.638 41.2459 356.945 46.4824 357 54.632C356.964 59.602 355.125 63.4814 351.483 66.2701C347.848 69.0614 342.796 70.4547 336.327 70.4498C333.026 70.4498 330.071 70.0786 327.438 69.3478C324.818 68.6057 322.554 67.5001 320.647 66.031C318.753 64.5582 317.274 62.6665 316.25 60.3674C315.213 58.0562 314.68 55.3982 314.653 52.3931H326.675C326.819 54.86 327.724 56.7512 329.416 58.0567C331.095 59.3616 333.348 60.0161 336.173 60.0203C338.662 60.0203 340.624 59.5212 342.059 58.5229C343.489 57.5288 344.217 56.2238 344.251 54.6083C344.239 53.1828 343.572 52.0214 342.273 51.1373C340.963 50.2637 338.854 49.4726 335.923 48.7909L330.489 47.5201C325.819 46.4431 322.233 44.7272 319.729 42.3724C317.216 40.0014 315.977 36.9002 315.987 33.056C315.976 29.8709 316.838 27.0412 318.573 24.5668C320.3 22.1004 322.72 20.1836 325.817 18.8429C328.914 17.5022 332.43 16.8312 336.351 16.8312C342.367 16.8312 347.169 18.3281 350.791 21.3325C354.401 24.3262 356.232 28.286 356.284 33.2117H344.25V33.2131Z" fill="white"/>
<path fill-rule="evenodd" clip-rule="evenodd" d="M170.066 77.6855L175.292 94.8837H175.484L180.71 77.6855H187.029L179.147 101.168H171.628L163.747 77.6855H170.066ZM194.444 101.169H188.375L196.257 77.686H203.775L211.659 101.168H205.589L204.048 96.2388H195.983L194.442 101.168L194.444 101.169ZM197.33 91.9289H202.706L200.104 83.6037H199.921L197.331 91.9289H197.33ZM216.911 101.169V77.686H222.558V96.5575H232.278V101.169H216.911ZM237.284 101.169V77.686H242.933V96.5575H252.652V101.169H237.284ZM257.656 101.169V77.686H273.952V82.2972H263.307V87.1138H273.113V91.7313H263.305V96.558H273.95V101.169H257.655L257.656 101.169ZM278.41 77.6855H284.718L289.66 87.512H289.862L294.804 77.6855H301.112L292.566 93.3284V101.169H286.953V93.3284L278.41 77.6855Z" fill="white"/>
<path d="M164.628 111.781V114.409H163.746V107.694H166.21C166.942 107.694 167.515 107.882 167.928 108.256C168.342 108.63 168.55 109.127 168.552 109.747C168.552 110.398 168.35 110.901 167.945 111.253C167.54 111.606 166.959 111.782 166.203 111.781H164.628ZM164.628 111.057H166.211C166.683 111.057 167.044 110.946 167.296 110.724C167.547 110.501 167.672 110.179 167.672 109.757C167.672 109.357 167.546 109.037 167.296 108.797C167.045 108.556 166.7 108.432 166.262 108.422H164.631V111.056L164.628 111.057ZM171.942 110.185C171.804 110.163 171.665 110.152 171.525 110.153C170.968 110.153 170.59 110.391 170.391 110.867V114.41H169.542V109.42H170.367L170.381 109.999C170.661 109.553 171.055 109.33 171.566 109.33C171.694 109.324 171.823 109.346 171.942 109.394V110.188V110.185ZM172.497 111.87C172.491 111.414 172.589 110.962 172.785 110.55C172.96 110.178 173.237 109.864 173.584 109.645C173.936 109.43 174.34 109.32 174.752 109.328C175.428 109.328 175.975 109.563 176.393 110.032C176.811 110.502 177.018 111.129 177.016 111.913V111.972C177.024 112.424 176.929 112.871 176.74 113.28C176.567 113.652 176.291 113.965 175.945 114.182C175.589 114.401 175.177 114.513 174.759 114.505C174.086 114.505 173.541 114.27 173.124 113.8C172.708 113.329 172.499 112.707 172.497 111.931V111.872V111.87ZM173.351 111.97C173.351 112.524 173.479 112.969 173.735 113.303C173.853 113.465 174.008 113.595 174.186 113.682C174.365 113.77 174.562 113.813 174.761 113.807C175.192 113.807 175.535 113.637 175.789 113.297C176.043 112.957 176.17 112.481 176.17 111.87C176.17 111.323 176.041 110.879 175.783 110.538C175.663 110.38 175.509 110.251 175.332 110.163C175.155 110.075 174.96 110.028 174.762 110.028C174.564 110.027 174.369 110.072 174.192 110.16C174.014 110.247 173.859 110.374 173.738 110.531C173.482 110.869 173.355 111.345 173.355 111.97H173.351ZM180.074 113.807C180.363 113.812 180.644 113.714 180.868 113.531C180.975 113.448 181.064 113.343 181.129 113.224C181.194 113.104 181.233 112.973 181.244 112.837H182.048C182.03 113.133 181.927 113.418 181.753 113.657C181.568 113.92 181.321 114.132 181.034 114.275C180.737 114.428 180.408 114.507 180.074 114.505C179.398 114.505 178.86 114.279 178.461 113.826C178.062 113.372 177.863 112.752 177.862 111.963V111.819C177.862 111.334 177.95 110.903 178.129 110.523C178.292 110.161 178.557 109.855 178.892 109.642C179.224 109.432 179.616 109.328 180.07 109.329C180.626 109.329 181.089 109.495 181.457 109.83C181.825 110.166 182.023 110.602 182.048 111.136H181.244C181.229 110.833 181.098 110.548 180.879 110.341C180.661 110.133 180.369 110.021 180.069 110.029C179.637 110.029 179.301 110.184 179.067 110.498C178.832 110.811 178.711 111.261 178.711 111.852V112.014C178.711 112.588 178.828 113.033 179.064 113.342C179.299 113.652 179.639 113.808 180.074 113.808L180.074 113.807ZM185.064 114.503C184.39 114.503 183.842 114.281 183.42 113.837C182.999 113.393 182.788 112.799 182.788 112.053V111.893C182.78 111.436 182.876 110.982 183.07 110.568C183.243 110.196 183.516 109.88 183.859 109.656C184.184 109.439 184.567 109.324 184.957 109.325C185.602 109.325 186.104 109.538 186.462 109.965C186.821 110.394 187 111.004 187 111.8V112.157H183.637C183.648 112.649 183.792 113.047 184.066 113.349C184.34 113.651 184.689 113.804 185.109 113.804C185.408 113.804 185.664 113.743 185.87 113.62C186.082 113.493 186.267 113.327 186.417 113.131L186.935 113.537C186.52 114.18 185.896 114.501 185.065 114.501L185.064 114.503ZM184.957 110.028C184.795 110.025 184.634 110.057 184.486 110.122C184.337 110.187 184.204 110.283 184.096 110.404C183.862 110.654 183.719 111.006 183.664 111.459H186.151V111.394C186.126 110.961 186.011 110.623 185.802 110.385C185.593 110.148 185.313 110.028 184.958 110.028H184.957ZM190.874 113.088C190.878 112.984 190.857 112.88 190.812 112.786C190.766 112.691 190.698 112.61 190.614 112.55C190.441 112.421 190.14 112.311 189.71 112.219C189.28 112.128 188.939 112.016 188.687 111.887C188.435 111.757 188.249 111.605 188.128 111.426C188.003 111.238 187.939 111.015 187.946 110.789C187.946 110.381 188.118 110.035 188.462 109.752C188.805 109.47 189.245 109.328 189.782 109.328C190.344 109.328 190.8 109.473 191.151 109.765C191.319 109.898 191.454 110.069 191.546 110.263C191.637 110.458 191.683 110.671 191.679 110.886H190.825C190.825 110.652 190.726 110.451 190.529 110.281C190.331 110.113 190.082 110.028 189.783 110.028C189.473 110.028 189.232 110.096 189.058 110.231C188.975 110.292 188.908 110.372 188.863 110.464C188.817 110.556 188.794 110.658 188.796 110.761C188.792 110.854 188.812 110.946 188.855 111.028C188.897 111.11 188.961 111.18 189.039 111.229C189.202 111.333 189.495 111.433 189.918 111.528C190.341 111.622 190.686 111.737 190.949 111.87C191.212 112.002 191.406 112.159 191.533 112.347C191.665 112.548 191.732 112.786 191.725 113.027C191.73 113.236 191.685 113.443 191.592 113.63C191.499 113.817 191.362 113.979 191.192 114.1C190.838 114.369 190.378 114.503 189.811 114.503C189.448 114.51 189.087 114.437 188.755 114.29C188.466 114.163 188.217 113.959 188.036 113.699C187.867 113.458 187.776 113.17 187.775 112.875H188.625C188.628 113.007 188.66 113.137 188.719 113.255C188.779 113.372 188.863 113.475 188.968 113.556C189.179 113.724 189.461 113.807 189.809 113.807C190.128 113.807 190.386 113.742 190.582 113.611C190.778 113.479 190.876 113.305 190.874 113.088H190.874ZM195.719 113.088C195.724 112.984 195.702 112.88 195.657 112.786C195.612 112.691 195.544 112.61 195.459 112.55C195.286 112.422 194.986 112.312 194.555 112.219C194.124 112.126 193.784 112.016 193.532 111.887C193.28 111.757 193.094 111.605 192.973 111.426C192.848 111.238 192.785 111.015 192.792 110.789C192.792 110.381 192.963 110.035 193.307 109.752C193.65 109.47 194.09 109.328 194.627 109.328C195.189 109.328 195.646 109.473 195.996 109.765C196.164 109.898 196.299 110.069 196.391 110.263C196.483 110.458 196.528 110.671 196.524 110.886H195.67C195.67 110.652 195.572 110.451 195.374 110.281C195.177 110.113 194.928 110.028 194.629 110.028C194.318 110.028 194.077 110.096 193.903 110.231C193.82 110.292 193.753 110.372 193.708 110.464C193.662 110.556 193.64 110.658 193.642 110.761C193.637 110.854 193.657 110.946 193.7 111.028C193.743 111.11 193.806 111.18 193.884 111.229C194.048 111.333 194.341 111.433 194.763 111.528C195.186 111.622 195.531 111.737 195.794 111.87C196.058 112.002 196.251 112.159 196.379 112.347C196.51 112.548 196.577 112.786 196.57 113.027C196.576 113.236 196.53 113.443 196.437 113.63C196.345 113.817 196.207 113.979 196.038 114.1C195.683 114.369 195.223 114.503 194.656 114.503C194.293 114.51 193.933 114.437 193.6 114.29C193.311 114.163 193.062 113.959 192.881 113.699C192.713 113.457 192.622 113.17 192.621 112.875H193.47C193.473 113.007 193.505 113.137 193.565 113.255C193.624 113.372 193.709 113.475 193.813 113.556C194.025 113.724 194.307 113.807 194.654 113.807C194.975 113.807 195.234 113.741 195.428 113.611C195.622 113.48 195.719 113.305 195.719 113.088H195.719ZM198.597 114.41H197.747V109.42H198.596V114.41H198.597ZM197.679 108.094C197.676 107.966 197.721 107.841 197.806 107.745C197.889 107.649 198.014 107.6 198.179 107.6C198.344 107.6 198.47 107.649 198.557 107.745C198.642 107.841 198.688 107.966 198.685 108.094C198.689 108.222 198.643 108.346 198.557 108.441C198.47 108.534 198.345 108.579 198.179 108.579C198.013 108.579 197.891 108.531 197.806 108.441C197.721 108.346 197.675 108.222 197.679 108.094ZM200.759 109.418L200.787 110.045C201.166 109.565 201.662 109.325 202.274 109.326C203.324 109.326 203.853 109.921 203.862 111.11V114.407H203.014V111.106C203.01 110.745 202.927 110.479 202.768 110.307C202.608 110.136 202.357 110.049 202.017 110.049C201.758 110.044 201.504 110.122 201.292 110.271C201.083 110.419 200.915 110.618 200.805 110.85V114.405H199.954V109.415L200.759 109.418ZM204.94 111.872C204.94 111.093 205.119 110.474 205.477 110.015C205.835 109.555 206.309 109.326 206.899 109.326C207.507 109.326 207.979 109.541 208.317 109.971L208.359 109.418H209.135V114.287C209.135 114.933 208.944 115.442 208.563 115.815C208.182 116.187 207.67 116.373 207.028 116.372C206.665 116.371 206.307 116.292 205.977 116.142C205.636 115.988 205.374 115.777 205.192 115.509L205.634 114.998C205.997 115.449 206.442 115.676 206.968 115.676C207.382 115.676 207.703 115.56 207.935 115.325C208.167 115.09 208.281 114.763 208.281 114.338V113.91C207.941 114.303 207.477 114.5 206.89 114.5C206.309 114.5 205.839 114.265 205.479 113.795C205.119 113.325 204.939 112.683 204.94 111.871V111.872ZM205.793 111.969C205.793 112.532 205.908 112.975 206.138 113.296C206.368 113.617 206.689 113.778 207.102 113.778C207.637 113.778 208.03 113.533 208.281 113.045V110.765C208.021 110.288 207.63 110.05 207.111 110.05C206.697 110.05 206.375 110.212 206.143 110.535C205.912 110.859 205.795 111.337 205.793 111.969V111.969ZM212.562 112.606C212.561 112.289 212.654 111.979 212.83 111.715C213.01 111.446 213.352 111.131 213.856 110.771C213.56 110.407 213.361 110.116 213.259 109.894C213.162 109.688 213.111 109.463 213.109 109.235C213.109 108.725 213.258 108.325 213.558 108.035C213.859 107.745 214.264 107.601 214.779 107.601C215.237 107.601 215.617 107.736 215.917 108.004C216.062 108.13 216.177 108.286 216.255 108.462C216.333 108.638 216.371 108.829 216.367 109.021C216.369 109.285 216.298 109.544 216.162 109.77C216.026 110 215.788 110.241 215.449 110.493L214.957 110.856L216.444 112.64C216.656 112.229 216.764 111.772 216.758 111.309H217.526C217.526 112.092 217.338 112.743 216.962 113.259L217.916 114.406H216.897L216.451 113.876C216.219 114.083 215.949 114.241 215.655 114.34C215.356 114.445 215.042 114.499 214.726 114.499C214.075 114.499 213.551 114.325 213.156 113.978C212.761 113.631 212.564 113.173 212.565 112.604L212.562 112.606ZM214.724 113.806C215.174 113.806 215.585 113.634 215.958 113.29L214.327 111.328L214.176 111.44C213.664 111.818 213.408 112.207 213.408 112.606C213.408 112.97 213.526 113.26 213.759 113.478C213.993 113.697 214.314 113.806 214.719 113.806H214.724ZM213.956 109.207C213.956 109.502 214.136 109.871 214.497 110.315L215.039 109.93C215.247 109.785 215.389 109.641 215.465 109.508C215.546 109.359 215.586 109.191 215.581 109.021C215.583 108.923 215.563 108.827 215.523 108.738C215.483 108.648 215.424 108.569 215.35 108.506C215.191 108.367 214.985 108.294 214.774 108.302C214.523 108.302 214.324 108.387 214.178 108.558C214.03 108.728 213.958 108.944 213.958 109.206L213.956 109.207ZM224.818 111.305H221.925V113.685H225.288V114.408H221.043V107.694H225.243V108.422H221.925V110.581H224.82V111.304L224.818 111.305ZM227.916 111.24L229.02 109.419H230.011L228.385 111.885L230.061 114.408H229.078L227.93 112.54L226.784 114.408H225.796L227.471 111.885L225.847 109.419H226.829L227.917 111.24H227.916ZM235.103 111.969C235.103 112.729 234.93 113.34 234.585 113.804C234.24 114.268 233.769 114.501 233.179 114.501C232.577 114.501 232.103 114.309 231.758 113.923V116.329H230.908V109.419H231.684L231.726 109.972C232.071 109.542 232.55 109.327 233.165 109.327C233.762 109.327 234.234 109.553 234.581 110.005C234.928 110.457 235.102 111.086 235.103 111.89V111.969L235.103 111.969ZM234.254 111.872C234.254 111.309 234.135 110.864 233.896 110.539C233.657 110.214 233.329 110.051 232.914 110.049C232.399 110.049 232.014 110.279 231.758 110.738V113.122C232.011 113.577 232.4 113.805 232.923 113.805C233.112 113.811 233.3 113.769 233.469 113.685C233.638 113.6 233.784 113.474 233.894 113.319C234.134 112.995 234.254 112.511 234.254 111.873V111.872ZM235.957 111.868C235.95 111.412 236.048 110.96 236.244 110.548C236.419 110.176 236.696 109.862 237.043 109.643C237.394 109.428 237.799 109.318 238.21 109.326C238.887 109.326 239.434 109.561 239.852 110.031C240.27 110.5 240.478 111.127 240.476 111.911V111.97C240.483 112.422 240.388 112.869 240.198 113.278C240.026 113.65 239.75 113.963 239.405 114.18C239.048 114.399 238.636 114.511 238.219 114.503C237.544 114.503 236.999 114.268 236.583 113.798C236.167 113.327 235.958 112.705 235.956 111.93V111.87L235.957 111.868ZM236.811 111.968C236.811 112.523 236.938 112.967 237.194 113.302C237.45 113.639 237.793 113.805 238.221 113.805C238.648 113.805 238.994 113.635 239.248 113.295C239.501 112.955 239.629 112.48 239.629 111.868C239.629 111.321 239.499 110.877 239.241 110.536C239.124 110.373 238.968 110.242 238.789 110.153C238.609 110.064 238.411 110.02 238.211 110.026C238.014 110.021 237.819 110.065 237.643 110.152C237.466 110.24 237.314 110.37 237.198 110.53C236.941 110.867 236.814 111.343 236.814 111.968H236.811ZM243.941 110.184C243.803 110.162 243.664 110.151 243.524 110.152C242.967 110.152 242.589 110.39 242.39 110.866V114.409H241.541V109.419H242.367L242.381 109.998C242.66 109.552 243.055 109.329 243.565 109.329C243.694 109.323 243.822 109.345 243.941 109.393V110.187V110.184ZM245.874 108.208V109.417H246.8V110.076H245.874V113.171C245.874 113.371 245.914 113.52 245.997 113.621C246.08 113.722 246.22 113.771 246.419 113.771C246.555 113.766 246.691 113.747 246.823 113.716V114.407C246.611 114.467 246.392 114.498 246.171 114.5C245.792 114.5 245.506 114.384 245.313 114.153C245.12 113.923 245.024 113.595 245.025 113.171V110.076H244.119V109.417H245.025V108.21L245.874 108.208ZM252.11 113.804C252.399 113.808 252.68 113.71 252.904 113.527C253.011 113.444 253.1 113.34 253.165 113.22C253.23 113.101 253.269 112.969 253.28 112.834H254.084C254.065 113.13 253.963 113.414 253.79 113.653C253.604 113.917 253.355 114.129 253.067 114.272C252.771 114.424 252.443 114.503 252.11 114.502C251.434 114.502 250.896 114.275 250.497 113.822C250.098 113.369 249.898 112.748 249.898 111.96V111.815C249.898 111.33 249.986 110.899 250.165 110.52C250.328 110.158 250.594 109.851 250.928 109.638C251.26 109.429 251.652 109.325 252.105 109.325C252.661 109.325 253.125 109.492 253.493 109.827C253.861 110.162 254.059 110.598 254.084 111.132H253.281C253.266 110.83 253.135 110.545 252.916 110.337C252.698 110.13 252.406 110.017 252.106 110.025C251.674 110.025 251.338 110.181 251.104 110.494C250.869 110.808 250.748 111.258 250.748 111.849V112.011C250.748 112.585 250.865 113.029 251.1 113.339C251.335 113.648 251.676 113.805 252.111 113.805L252.11 113.804ZM254.814 111.866C254.807 111.41 254.905 110.958 255.101 110.547C255.276 110.174 255.553 109.86 255.9 109.642C256.251 109.427 256.656 109.317 257.067 109.324C257.744 109.324 258.291 109.559 258.709 110.029C259.127 110.499 259.335 111.126 259.333 111.909V111.969C259.34 112.42 259.245 112.868 259.055 113.277C258.883 113.648 258.607 113.962 258.261 114.179C257.905 114.398 257.493 114.51 257.076 114.501C256.402 114.501 255.856 114.266 255.44 113.796C255.024 113.326 254.815 112.703 254.813 111.928V111.868L254.814 111.866ZM255.667 111.967C255.667 112.521 255.795 112.966 256.051 113.3C256.169 113.461 256.324 113.591 256.503 113.679C256.682 113.767 256.879 113.81 257.078 113.804C257.509 113.804 257.851 113.634 258.105 113.294C258.36 112.954 258.487 112.478 258.486 111.866C258.486 111.32 258.357 110.876 258.099 110.534C257.979 110.376 257.825 110.248 257.648 110.16C257.471 110.071 257.276 110.025 257.078 110.024C256.881 110.024 256.685 110.069 256.508 110.156C256.33 110.244 256.175 110.371 256.055 110.528C255.798 110.866 255.671 111.342 255.671 111.967H255.667ZM261.197 109.417L261.22 109.969C261.584 109.54 262.075 109.325 262.693 109.324C263.387 109.324 263.86 109.592 264.11 110.127C264.278 109.886 264.499 109.688 264.756 109.548C265.02 109.4 265.332 109.326 265.694 109.326C266.783 109.326 267.337 109.906 267.356 111.066V114.408H266.507V111.116C266.507 110.759 266.426 110.492 266.262 110.315C266.099 110.137 265.831 110.05 265.447 110.05C265.132 110.05 264.871 110.144 264.662 110.333C264.454 110.522 264.333 110.777 264.299 111.096V114.408H263.446V111.139C263.446 110.414 263.093 110.051 262.386 110.05C261.828 110.05 261.447 110.288 261.242 110.764V114.408H260.393V109.419L261.197 109.417ZM272.83 111.967C272.83 112.727 272.657 113.338 272.312 113.802C271.968 114.266 271.497 114.5 270.907 114.5C270.304 114.5 269.831 114.307 269.485 113.921V116.329H268.636V109.419H269.411L269.453 109.972C269.798 109.542 270.278 109.327 270.892 109.327C271.489 109.327 271.961 109.553 272.309 110.005C272.656 110.457 272.83 111.086 272.83 111.89V111.969L272.83 111.967ZM271.981 111.87C271.981 111.307 271.862 110.863 271.623 110.537C271.384 110.212 271.057 110.049 270.641 110.047C270.127 110.047 269.742 110.277 269.485 110.736V113.12C269.739 113.575 270.127 113.803 270.65 113.803C270.839 113.809 271.027 113.768 271.196 113.683C271.366 113.598 271.512 113.472 271.621 113.317C271.861 112.993 271.981 112.509 271.981 111.871V111.87ZM276.974 114.406C276.926 114.31 276.886 114.133 276.854 113.881C276.46 114.293 275.989 114.499 275.442 114.499C274.951 114.499 274.55 114.36 274.238 114.082C274.086 113.952 273.965 113.789 273.883 113.605C273.802 113.422 273.762 113.222 273.767 113.021C273.767 112.502 273.964 112.098 274.356 111.811C274.749 111.524 275.302 111.379 276.015 111.377H276.841V110.985C276.841 110.688 276.753 110.45 276.574 110.272C276.396 110.094 276.135 110.013 275.79 110.013C275.488 110.013 275.234 110.09 275.029 110.243C274.823 110.397 274.722 110.583 274.722 110.802H273.868C273.868 110.553 273.956 110.312 274.131 110.079C274.32 109.838 274.566 109.648 274.847 109.528C275.161 109.39 275.5 109.321 275.842 109.325C276.414 109.325 276.861 109.469 277.185 109.756C277.509 110.046 277.678 110.439 277.689 110.943V113.243C277.689 113.702 277.747 114.063 277.865 114.336V114.409L276.974 114.406ZM275.565 113.756C275.832 113.756 276.093 113.684 276.322 113.548C276.546 113.426 276.727 113.238 276.841 113.008V111.99H276.177C275.137 111.99 274.617 112.295 274.617 112.906C274.617 113.173 274.704 113.383 274.881 113.532C275.058 113.682 275.287 113.759 275.565 113.759V113.756ZM279.824 109.417L279.853 110.044C280.232 109.564 280.728 109.324 281.34 109.325C282.39 109.325 282.919 109.92 282.928 111.109V114.407H282.08V111.105C282.076 110.744 281.993 110.478 281.833 110.306C281.673 110.135 281.423 110.048 281.083 110.048C280.824 110.043 280.57 110.121 280.358 110.27C280.149 110.418 279.981 110.617 279.871 110.849V114.404H279.021V109.414L279.824 109.417ZM285.832 113.157L286.99 109.417H287.898L285.901 115.177C285.592 116.007 285.101 116.421 284.429 116.422L284.267 116.408L283.951 116.348V115.656L284.181 115.674C284.469 115.674 284.693 115.616 284.853 115.5C285.013 115.383 285.146 115.169 285.249 114.859L285.437 114.352L283.667 109.419H284.593L285.832 113.157Z" fill="white"/>
</g>
<defs>
<clipPath id="clip0_200_2149">
<rect width="357" height="118" fill="white"/>
</clipPath>
</defs>
</svg>
